<svg xmlns="http://www.w3.org/2000/svg" width="171" height="171" viewBox="0 0 128 128" preserveAspectRatio="xMidYMid meet" fill="#fff"><path d="M60 27v23h8V4h-8v23zM49.5 15.4C36.1 19.7 25.1 29 19 41.3 13.5 52.2 13.6 53 20.6 53c5.4 0 5.5-.1 7.1-3.7 4-9.6 14-19.2 23.1-22.2l4.2-1.4v-5.9c0-3.2-.3-5.8-.7-5.7-.5 0-2.6.6-4.8 1.3zM75 19.8v5.8l5.5 2.3c7.7 3.2 15.5 10.6 19.6 18.6l3.4 6.5h5.8c6.8 0 6.8.1 1.2-11.5C105 30.1 93.7 20.2 81.6 16l-6.3-2c-.1 0-.3 2.6-.3 5.8zM4 65v4h46v-8H4v4zm74.7-3.4c-.4.4-.7 2.2-.7 4.1V69h47.1l-.3-3.8-.3-3.7-22.6-.3c-12.4-.1-22.8.1-23.2.4zM15 78c0 .5.9 3.3 2 6.2 2.4 6.4 8.9 15.2 15 20.3 4.9 4.1 14.6 9.1 19.8 10.1l3.2.6v-10.9l-7.4-3.7c-8.5-4.2-16.3-11.9-19.2-19L26.5 77h-5.7c-3.2 0-5.8.4-5.8 1zm86.2 3.2c-4 8.8-14.3 18.6-22.3 20.9l-3.9 1.2v11.9l2.8-.6c1.5-.4 6-2.2 10-4.1 11.9-5.6 20.9-16 25.8-29.7l1.3-3.8h-11.8l-1.9 4.2zm-41 20l.3 23.3h7l.3-23.3L68 78h-8l.2 23.2z"/></svg>