<svg version="1.0" xmlns="http://www.w3.org/2000/svg" width="128" height="128" viewBox="0 0 1280 1280"><path fill="#fff" d="M794 1233c-34-117-131-184-241-169-61 8-51-26 13-43 26-7 24-8-26-24-65-21-102-21-169-1-29 8-55 13-57 11s5-15 16-29c17-23 37-34 94-52 17-6 11-12-33-42-98-67-171-159-171-219 0-14-1-25-2-25-2 0-25 11-52 25s-65 25-84 25H47l42-37c32-30 111-150 111-169 0-2-18-1-40 2-21 4-47 3-57 0-13-5-5-12 33-30 27-13 77-49 111-80 33-31 66-56 72-56 7 0 9-5 6-10-3-6-18-7-33-4l-27 5 25-22c33-30 152-84 218-99 64-15 168-18 239-7 46 7 52 6 47-8-4-9-27-30-53-48-40-28-53-31-106-30-34 1-93 13-134 28-79 27-159 33-179 13-17-17-15-45 5-79 23-39 33-37 26 6-7 45 3 45 130 0 108-39 173-44 247-21 25 8 76 19 114 25 79 11 135 44 174 101 21 31 23 43 19 107-5 62-3 74 14 89 10 9 19 28 19 40 0 16 10 28 29 39 16 8 38 25 48 39 10 13 33 27 51 31 33 7 39 22 23 53-5 9-15 32-21 50-12 31-14 32-36 17-17-11-30-12-49-5-36 14-35 14-35-24 0-19-7-39-16-47-16-13-99-17-111-5-11 11 20 67 54 96 25 23 40 29 58 24 21-5 25-3 25 17 0 29-22 92-35 101-15 11-55 10-55-2 0-27-41-50-90-50-81 0-149-19-184-52l-31-30 40 6c169 25 192 18 132-41-24-25-45-36-67-37-24-1-30-5-26-18 3-15-3-18-39-18-24 0-56-5-70-12l-27-12 38-11c62-17 56-35-21-60-18-6-17-8 10-20 26-11 27-14 12-20-54-22-153 31-186 99-17 34-19 48-11 78 15 54 61 87 252 183 192 97 313 173 372 234l40 41-35 36c-108 113-299 202-315 147zm204-795c-2-6-10-14-16-16-7-2-10 2-6 12 7 18 28 22 22 4zm-18-193c0-31-40-94-73-114-50-31-60-26-31 16 13 20 27 46 30 58 3 11 17 28 32 37 35 21 42 21 42 3z"/></svg>